<mxfile host="65bd71144e">
    <diagram id="6xGA8Hix2pt1-a0MzUPB" name="Page-1">
        <mxGraphModel dx="1143" dy="1060" grid="1" gridSize="10" guides="1" tooltips="1" connect="1" arrows="1" fold="1" page="1" pageScale="1" pageWidth="850" pageHeight="1100" math="0" shadow="0">
            <root>
                <mxCell id="0"/>
                <mxCell id="1" parent="0"/>
                <mxCell id="4" value="" style="group" parent="1" vertex="1" connectable="0">
                    <mxGeometry x="15" y="10" width="820" height="1070" as="geometry"/>
                </mxCell>
                <mxCell id="2" value="" style="rounded=0;whiteSpace=wrap;html=1;textDirection=rtl;" parent="4" vertex="1">
                    <mxGeometry width="820" height="1070" as="geometry"/>
                </mxCell>
                <mxCell id="3" value="" style="rounded=0;whiteSpace=wrap;html=1;fillColor=#fff2cc;strokeColor=#d6b656;" parent="4" vertex="1">
                    <mxGeometry x="115" y="20.000000000000004" width="640" height="1000" as="geometry"/>
                </mxCell>
                <mxCell id="5" value="Secrétaire" style="shape=umlActor;verticalLabelPosition=bottom;verticalAlign=top;html=1;" parent="4" vertex="1">
                    <mxGeometry x="30" y="129.99823529411765" width="30" height="75.52941176470588" as="geometry"/>
                </mxCell>
                <mxCell id="6" value="Moniteur" style="shape=umlActor;verticalLabelPosition=bottom;verticalAlign=top;html=1;" parent="4" vertex="1">
                    <mxGeometry x="30" y="860" width="30" height="75.53" as="geometry"/>
                </mxCell>
                <mxCell id="8" value="Consulter planning" style="ellipse;whiteSpace=wrap;html=1;" parent="4" vertex="1">
                    <mxGeometry x="190" y="829.9958823529413" width="140" height="88.11764705882352" as="geometry"/>
                </mxCell>
                <mxCell id="11" value="" style="endArrow=none;html=1;entryX=0;entryY=0.5;entryDx=0;entryDy=0;exitX=0.5;exitY=0.5;exitDx=0;exitDy=0;exitPerimeter=0;" parent="4" source="6" target="8" edge="1">
                    <mxGeometry width="50" height="50" relative="1" as="geometry">
                        <mxPoint x="60" y="840" as="sourcePoint"/>
                        <mxPoint x="340" y="377.6470588235294" as="targetPoint"/>
                    </mxGeometry>
                </mxCell>
                <mxCell id="15" value="S'indentifier" style="ellipse;whiteSpace=wrap;html=1;" parent="4" vertex="1">
                    <mxGeometry x="415" y="890.0005882352941" width="140" height="88.11764705882352" as="geometry"/>
                </mxCell>
                <mxCell id="16" value="Preparer Liste des condidats" style="ellipse;whiteSpace=wrap;html=1;" parent="4" vertex="1">
                    <mxGeometry x="190" y="928.1205882352941" width="140" height="88.11764705882352" as="geometry"/>
                </mxCell>
                <mxCell id="17" value="" style="endArrow=none;html=1;entryX=0.03;entryY=0.351;entryDx=0;entryDy=0;entryPerimeter=0;exitX=0.5;exitY=0.5;exitDx=0;exitDy=0;exitPerimeter=0;" parent="4" source="6" target="16" edge="1">
                    <mxGeometry width="50" height="50" relative="1" as="geometry">
                        <mxPoint x="60" y="840" as="sourcePoint"/>
                        <mxPoint x="360" y="516.1176470588235" as="targetPoint"/>
                    </mxGeometry>
                </mxCell>
                <mxCell id="22" value="Include" style="endArrow=blockThin;endSize=10;endFill=1;html=1;exitX=1;exitY=0.5;exitDx=0;exitDy=0;dashed=1;" parent="4" source="16" target="15" edge="1">
                    <mxGeometry x="-0.125" width="160" relative="1" as="geometry">
                        <mxPoint x="280" y="679.7647058823529" as="sourcePoint"/>
                        <mxPoint x="440" y="679.7647058823529" as="targetPoint"/>
                        <mxPoint as="offset"/>
                    </mxGeometry>
                </mxCell>
                <mxCell id="23" value="Include" style="endArrow=blockThin;endSize=10;endFill=1;html=1;exitX=1;exitY=0.5;exitDx=0;exitDy=0;entryX=0.031;entryY=0.352;entryDx=0;entryDy=0;dashed=1;entryPerimeter=0;" parent="4" source="8" target="15" edge="1">
                    <mxGeometry x="-0.1366" width="160" relative="1" as="geometry">
                        <mxPoint x="379.9974746830583" y="553.8807634769838" as="sourcePoint"/>
                        <mxPoint x="453" y="638.2235294117647" as="targetPoint"/>
                        <mxPoint as="offset"/>
                    </mxGeometry>
                </mxCell>
                <mxCell id="40" value="Gerer les élèves" style="ellipse;whiteSpace=wrap;html=1;" parent="4" vertex="1">
                    <mxGeometry x="210" y="46.88058823529412" width="140" height="88.11764705882352" as="geometry"/>
                </mxCell>
                <mxCell id="41" value="Gerer les moniteurs" style="ellipse;whiteSpace=wrap;html=1;" parent="4" vertex="1">
                    <mxGeometry x="210" y="240.00411764705888" width="140" height="88.11764705882352" as="geometry"/>
                </mxCell>
                <mxCell id="42" value="Gerer les vehecules" style="ellipse;whiteSpace=wrap;html=1;" parent="4" vertex="1">
                    <mxGeometry x="210" y="430.00235294117647" width="140" height="88.11764705882352" as="geometry"/>
                </mxCell>
                <mxCell id="43" value="Gerer les examens" style="ellipse;whiteSpace=wrap;html=1;" parent="4" vertex="1">
                    <mxGeometry x="210" y="144.99823529411765" width="140" height="88.11764705882352" as="geometry"/>
                </mxCell>
                <mxCell id="46" value="" style="endArrow=none;html=1;strokeColor=#000000;endSize=8;entryX=0;entryY=0.5;entryDx=0;entryDy=0;exitX=0.5;exitY=0.5;exitDx=0;exitDy=0;exitPerimeter=0;" parent="4" source="5" target="40" edge="1">
                    <mxGeometry width="50" height="50" relative="1" as="geometry">
                        <mxPoint x="70" y="276.94117647058823" as="sourcePoint"/>
                        <mxPoint x="180" y="289.52941176470586" as="targetPoint"/>
                    </mxGeometry>
                </mxCell>
                <mxCell id="47" value="" style="endArrow=none;html=1;strokeColor=#000000;endSize=8;entryX=0;entryY=0.5;entryDx=0;entryDy=0;exitX=0.5;exitY=0.5;exitDx=0;exitDy=0;exitPerimeter=0;" parent="4" source="5" target="41" edge="1">
                    <mxGeometry width="50" height="50" relative="1" as="geometry">
                        <mxPoint x="70" y="276.94117647058823" as="sourcePoint"/>
                        <mxPoint x="180" y="264.3529411764706" as="targetPoint"/>
                    </mxGeometry>
                </mxCell>
                <mxCell id="48" value="" style="endArrow=none;html=1;strokeColor=#000000;endSize=8;entryX=0;entryY=0.5;entryDx=0;entryDy=0;entryPerimeter=0;exitX=0.485;exitY=0.638;exitDx=0;exitDy=0;exitPerimeter=0;" parent="4" source="5" target="42" edge="1">
                    <mxGeometry width="50" height="50" relative="1" as="geometry">
                        <mxPoint x="70" y="276.94117647058823" as="sourcePoint"/>
                        <mxPoint x="219.99999999999977" y="321" as="targetPoint"/>
                    </mxGeometry>
                </mxCell>
                <mxCell id="49" value="" style="endArrow=none;html=1;strokeColor=#000000;endSize=8;entryX=0;entryY=0.5;entryDx=0;entryDy=0;exitX=0.5;exitY=0.5;exitDx=0;exitDy=0;exitPerimeter=0;" parent="4" source="5" target="44" edge="1">
                    <mxGeometry width="50" height="50" relative="1" as="geometry">
                        <mxPoint x="70" y="276.94117647058823" as="sourcePoint"/>
                        <mxPoint x="237.62000000000012" y="446.8823529411765" as="targetPoint"/>
                    </mxGeometry>
                </mxCell>
                <mxCell id="50" value="" style="endArrow=none;html=1;strokeColor=#000000;endSize=8;entryX=0;entryY=0.5;entryDx=0;entryDy=0;exitX=0.5;exitY=0.5;exitDx=0;exitDy=0;exitPerimeter=0;" parent="4" source="5" target="43" edge="1">
                    <mxGeometry width="50" height="50" relative="1" as="geometry">
                        <mxPoint x="70" y="276.94117647058823" as="sourcePoint"/>
                        <mxPoint x="401.67999999999995" y="385.3636470588235" as="targetPoint"/>
                    </mxGeometry>
                </mxCell>
                <mxCell id="52" value="S'indentifier" style="ellipse;whiteSpace=wrap;html=1;" parent="4" vertex="1">
                    <mxGeometry x="460" y="299.9958823529412" width="140" height="88.11764705882352" as="geometry"/>
                </mxCell>
                <mxCell id="54" value="Include" style="endArrow=block;endSize=8;endFill=1;html=1;exitX=1;exitY=1;exitDx=0;exitDy=0;dashed=1;entryX=0.082;entryY=0.231;entryDx=0;entryDy=0;entryPerimeter=0;" parent="4" source="43" target="52" edge="1">
                    <mxGeometry x="-0.1107" y="1" width="160" relative="1" as="geometry">
                        <mxPoint x="520" y="314.70588235294116" as="sourcePoint"/>
                        <mxPoint x="563" y="417.9294117647059" as="targetPoint"/>
                        <mxPoint as="offset"/>
                    </mxGeometry>
                </mxCell>
                <mxCell id="56" value="Include" style="endArrow=block;endSize=8;endFill=1;html=1;exitX=1;exitY=0.5;exitDx=0;exitDy=0;entryX=0;entryY=0.5;entryDx=0;entryDy=0;dashed=1;" parent="4" source="41" target="52" edge="1">
                    <mxGeometry x="-0.1107" y="1" width="160" relative="1" as="geometry">
                        <mxPoint x="524.5308179684096" y="368.9041150292031" as="sourcePoint"/>
                        <mxPoint x="580" y="339.88235294117646" as="targetPoint"/>
                        <mxPoint as="offset"/>
                    </mxGeometry>
                </mxCell>
                <mxCell id="57" value="Include" style="endArrow=block;endSize=8;endFill=1;html=1;exitX=1;exitY=0.5;exitDx=0;exitDy=0;entryX=0.183;entryY=0.093;entryDx=0;entryDy=0;dashed=1;entryPerimeter=0;" parent="4" source="40" target="52" edge="1">
                    <mxGeometry x="-0.1107" y="1" width="160" relative="1" as="geometry">
                        <mxPoint x="400" y="321" as="sourcePoint"/>
                        <mxPoint x="570" y="321" as="targetPoint"/>
                        <mxPoint as="offset"/>
                    </mxGeometry>
                </mxCell>
                <mxCell id="58" value="Include" style="endArrow=block;endSize=8;endFill=1;html=1;exitX=1;exitY=0.5;exitDx=0;exitDy=0;entryX=0.087;entryY=0.799;entryDx=0;entryDy=0;dashed=1;entryPerimeter=0;" parent="4" source="42" target="52" edge="1">
                    <mxGeometry x="-0.1107" y="1" width="160" relative="1" as="geometry">
                        <mxPoint x="340" y="195.11764705882354" as="sourcePoint"/>
                        <mxPoint x="640" y="276.94117647058823" as="targetPoint"/>
                        <mxPoint as="offset"/>
                    </mxGeometry>
                </mxCell>
                <mxCell id="44" value="Gerer les plannings" style="ellipse;whiteSpace=wrap;html=1;" parent="4" vertex="1">
                    <mxGeometry x="210" y="339.99823529411765" width="140" height="88.11764705882352" as="geometry"/>
                </mxCell>
                <mxCell id="61" value="Include" style="endArrow=block;endSize=8;endFill=1;html=1;exitX=1;exitY=0.5;exitDx=0;exitDy=0;dashed=1;entryX=0.027;entryY=0.634;entryDx=0;entryDy=0;entryPerimeter=0;" parent="4" source="44" target="52" edge="1">
                    <mxGeometry x="-0.1107" y="1" width="160" relative="1" as="geometry">
                        <mxPoint x="380" y="396.52941176470586" as="sourcePoint"/>
                        <mxPoint x="530" y="380" as="targetPoint"/>
                        <mxPoint as="offset"/>
                    </mxGeometry>
                </mxCell>
                <mxCell id="62" value="Gerer les payements" style="ellipse;whiteSpace=wrap;html=1;" parent="4" vertex="1">
                    <mxGeometry x="210" y="530.0023529411765" width="140" height="88.11764705882352" as="geometry"/>
                </mxCell>
                <mxCell id="63" value="" style="endArrow=none;html=1;strokeColor=#000000;endSize=8;entryX=0.02;entryY=0.375;entryDx=0;entryDy=0;entryPerimeter=0;exitX=0.5;exitY=0.5;exitDx=0;exitDy=0;exitPerimeter=0;" parent="4" source="5" target="62" edge="1">
                    <mxGeometry width="50" height="50" relative="1" as="geometry">
                        <mxPoint x="70" y="280" as="sourcePoint"/>
                        <mxPoint x="227.6199999999999" y="578.5097647058824" as="targetPoint"/>
                    </mxGeometry>
                </mxCell>
                <mxCell id="64" value="Include" style="endArrow=block;endSize=8;endFill=1;html=1;exitX=0.987;exitY=0.435;exitDx=0;exitDy=0;entryX=0.203;entryY=0.927;entryDx=0;entryDy=0;dashed=1;entryPerimeter=0;exitPerimeter=0;" parent="4" source="62" target="52" edge="1">
                    <mxGeometry x="-0.1107" y="1" width="160" relative="1" as="geometry">
                        <mxPoint x="369.9999999999993" y="584.0611764705883" as="sourcePoint"/>
                        <mxPoint x="559.96" y="420.0037647058824" as="targetPoint"/>
                        <mxPoint as="offset"/>
                    </mxGeometry>
                </mxCell>
                <mxCell id="74" value="" style="edgeStyle=none;html=1;" parent="4" edge="1">
                    <mxGeometry relative="1" as="geometry">
                        <mxPoint x="45" y="830" as="sourcePoint"/>
                        <mxPoint x="45" y="850" as="targetPoint"/>
                    </mxGeometry>
                </mxCell>
                <mxCell id="69" value="Proprietaire" style="shape=umlActor;verticalLabelPosition=bottom;verticalAlign=top;html=1;" parent="4" vertex="1">
                    <mxGeometry x="30" y="731.9982352941176" width="30" height="75.52941176470588" as="geometry"/>
                </mxCell>
                <mxCell id="70" value="Consulter les&lt;br&gt;&amp;nbsp;statistiques" style="ellipse;whiteSpace=wrap;html=1;" parent="4" vertex="1">
                    <mxGeometry x="190" y="725.0023529411765" width="140" height="88.11764705882352" as="geometry"/>
                </mxCell>
                <mxCell id="71" value="S'indentifier" style="ellipse;whiteSpace=wrap;html=1;" parent="4" vertex="1">
                    <mxGeometry x="415" y="723.0058823529412" width="140" height="88.11764705882352" as="geometry"/>
                </mxCell>
                <mxCell id="72" value="Include" style="endArrow=blockThin;endSize=10;endFill=1;html=1;exitX=1;exitY=0.5;exitDx=0;exitDy=0;entryX=0;entryY=0.5;entryDx=0;entryDy=0;dashed=1;" parent="4" source="70" target="71" edge="1">
                    <mxGeometry x="-0.1366" width="160" relative="1" as="geometry">
                        <mxPoint x="350.0000000000018" y="818.0547058823531" as="sourcePoint"/>
                        <mxPoint x="439.34000000000015" y="865.018" as="targetPoint"/>
                        <mxPoint as="offset"/>
                    </mxGeometry>
                </mxCell>
                <mxCell id="73" value="" style="endArrow=none;html=1;entryX=0;entryY=0.5;entryDx=0;entryDy=0;exitX=0.5;exitY=0.5;exitDx=0;exitDy=0;exitPerimeter=0;" parent="4" source="69" target="70" edge="1">
                    <mxGeometry width="50" height="50" relative="1" as="geometry">
                        <mxPoint x="45" y="748" as="sourcePoint"/>
                        <mxPoint x="209.99999999999818" y="894.0547058823531" as="targetPoint"/>
                    </mxGeometry>
                </mxCell>
                <mxCell id="76" value="" style="edgeStyle=none;html=1;" parent="4" edge="1">
                    <mxGeometry relative="1" as="geometry">
                        <mxPoint x="45" y="710" as="sourcePoint"/>
                        <mxPoint x="45" y="240" as="targetPoint"/>
                    </mxGeometry>
                </mxCell>
                <mxCell id="77" value="Gerer les payements" style="ellipse;whiteSpace=wrap;html=1;" parent="4" vertex="1">
                    <mxGeometry x="210" y="630.0023529411765" width="140" height="88.11764705882352" as="geometry"/>
                </mxCell>
                <mxCell id="79" value="" style="endArrow=none;html=1;strokeColor=#000000;endSize=8;entryX=0.031;entryY=0.316;entryDx=0;entryDy=0;entryPerimeter=0;exitX=0.5;exitY=0.5;exitDx=0;exitDy=0;exitPerimeter=0;" parent="4" source="5" target="77" edge="1">
                    <mxGeometry width="50" height="50" relative="1" as="geometry">
                        <mxPoint x="60" y="187.76294117647035" as="sourcePoint"/>
                        <mxPoint x="237.80000000000018" y="583.0464705882353" as="targetPoint"/>
                    </mxGeometry>
                </mxCell>
                <mxCell id="80" value="Include" style="endArrow=block;endSize=8;endFill=1;html=1;exitX=1;exitY=0.5;exitDx=0;exitDy=0;entryX=0.457;entryY=1.045;entryDx=0;entryDy=0;dashed=1;entryPerimeter=0;" parent="4" source="77" target="52" edge="1">
                    <mxGeometry x="-0.1107" y="1" width="160" relative="1" as="geometry">
                        <mxPoint x="373.18000000000006" y="588.3335294117646" as="sourcePoint"/>
                        <mxPoint x="513.4200000000001" y="401.6809411764706" as="targetPoint"/>
                        <mxPoint as="offset"/>
                    </mxGeometry>
                </mxCell>
            </root>
        </mxGraphModel>
    </diagram>
</mxfile>